<svg xmlns="http://www.w3.org/2000/svg" viewBox="0 0 128 128" role="img" aria-label="Bletë">
  <defs>
    <linearGradient id="honey" x1="0" y1="0" x2="1" y2="1">
      <stop offset="0" stop-color="#ffdd57"/>
      <stop offset="1" stop-color="#f2b233"/>
    </linearGradient>
  </defs>

  <!-- wings -->
  <ellipse cx="46" cy="50" rx="24" ry="18" fill="#ffffff" opacity="0.85"/>
  <ellipse cx="82" cy="50" rx="24" ry="18" fill="#ffffff" opacity="0.85"/>

  <!-- body -->
  <ellipse cx="64" cy="72" rx="34" ry="28" fill="url(#honey)" stroke="#1f2937" stroke-width="4"/>
  <!-- stripes -->
  <path d="M40 64c10 10 38 10 48 0" fill="none" stroke="#1f2937" stroke-width="6" stroke-linecap="round" opacity="0.95"/>
  <path d="M36 78c12 10 44 10 56 0" fill="none" stroke="#1f2937" stroke-width="6" stroke-linecap="round" opacity="0.95"/>

  <!-- head -->
  <circle cx="64" cy="42" r="18" fill="#1f2937"/>
  <!-- eyes -->
  <circle cx="58" cy="40" r="3" fill="#ffffff"/>
  <circle cx="70" cy="40" r="3" fill="#ffffff"/>

  <!-- antenna -->
  <path d="M56 28c-6-10-14-12-20-10" fill="none" stroke="#1f2937" stroke-width="4" stroke-linecap="round"/>
  <path d="M72 28c6-10 14-12 20-10" fill="none" stroke="#1f2937" stroke-width="4" stroke-linecap="round"/>
  <circle cx="36" cy="18" r="4" fill="#1f2937"/>
  <circle cx="92" cy="18" r="4" fill="#1f2937"/>
</svg>
